<?xml version="1.0" encoding="utf-8"?>
<!-- Svg Vector Icons : http://www.onlinewebfonts.com/icon -->
<!DOCTYPE svg PUBLIC "-//W3C//DTD SVG 1.1//EN" "http://www.w3.org/Graphics/SVG/1.1/DTD/svg11.dtd">
<svg version="1.1" xmlns="http://www.w3.org/2000/svg" xmlns:xlink="http://www.w3.org/1999/xlink" x="0px" y="0px" viewBox="0 0 1000 1000" enable-background="new 0 0 1000 1000" xml:space="preserve">
<metadata> Svg Vector Icons : http://www.onlinewebfonts.com/icon </metadata>
<g><path d="M920,335.9c0-29.5-3.9-55.6-11.8-78.2c-7.8-22.6-17.9-40.6-30.1-53.9c-12.2-13.3-27.1-24.2-44.6-32.5c-17.5-8.4-34.6-14-51.4-17c-16.8-2.9-34.6-4.4-53.6-4.4s-39.4,4.6-61.3,13.9s-42,21-60.4,35c-18.4,14-34.2,27.2-47.3,39.4c-13.1,12.2-24.1,23.4-32.8,33.6c-6.6,8-15.5,12-26.8,12c-11.3,0-20.2-4-26.8-12c-8.7-10.2-19.7-21.4-32.8-33.6c-13.1-12.2-28.9-25.3-47.3-39.4c-18.4-14-38.6-25.7-60.4-35c-21.9-9.3-42.3-13.9-61.2-13.9s-36.8,1.5-53.6,4.4s-33.9,8.6-51.4,17c-17.5,8.4-32.4,19.2-44.6,32.5c-12.2,13.3-22.2,31.3-30.1,53.9C83.9,280.3,80,306.4,80,335.9c0,61.3,34.1,126,102.3,194.1L500,836.3l317.2-305.7C885.7,462.1,920,397.2,920,335.9z M990,335.9c0,80.6-41.7,162.6-125.2,246.1L524.1,910.2c-6.6,6.6-14.6,9.8-24.1,9.8s-17.5-3.3-24.1-9.8L134.7,580.9c-3.6-2.9-8.7-7.7-15-14.2c-6.4-6.6-16.5-18.5-30.4-35.8c-13.9-17.3-26.3-35.1-37.2-53.3s-20.7-40.3-29.3-66.2c-8.6-25.9-12.9-51-12.9-75.5c0-80.2,23.2-142.9,69.5-188.1S189.7,80,271.4,80c22.6,0,45.7,3.9,69.2,11.8c23.5,7.8,45.4,18.4,65.6,31.7c20.2,13.3,37.6,25.8,52.2,37.5c14.6,11.7,28.4,24.1,41.6,37.2c13.1-13.1,27-25.5,41.6-37.2c14.6-11.7,32-24.2,52.2-37.5c20.2-13.3,42.1-23.9,65.6-31.7S706,80,728.6,80c81.7,0,145.7,22.6,192,67.8S990,255.7,990,335.9z"/></g>
</svg>